<svg width="65" height="64" viewBox="0 0 65 64" fill="none" xmlns="http://www.w3.org/2000/svg">
<g clip-path="url(#clip0_63_1318)">
<path d="M61.1597 0H3.15967C1.50281 0 0.159668 1.34315 0.159668 3V61C0.159668 62.6569 1.50281 64 3.15967 64H61.1597C62.8165 64 64.1597 62.6569 64.1597 61V3C64.1597 1.34315 62.8165 0 61.1597 0Z" fill="#3178C6"/>
<path fill-rule="evenodd" clip-rule="evenodd" d="M37.2908 49.734V56.747C38.427 57.331 39.7707 57.7695 41.322 58.0615C42.8734 58.354 44.5084 58.5 46.2273 58.5C47.9024 58.5 49.4938 58.3395 51.0012 58.018C52.5092 57.6965 53.8307 57.167 54.9672 56.429C56.1032 55.691 57.0027 54.727 57.6657 53.536C58.3282 52.3455 58.6597 50.8735 58.6597 49.1203C58.6597 47.8493 58.4702 46.7353 58.0917 45.7783C57.7127 44.8214 57.1667 43.9704 56.4527 43.2252C55.7392 42.4801 54.8832 41.8117 53.8857 41.22C52.8877 40.6283 51.7627 40.0694 50.5097 39.5435C49.5921 39.1636 48.7691 38.7947 48.0408 38.4368C47.3124 38.0788 46.6934 37.7136 46.1836 37.341C45.6737 36.9684 45.2804 36.574 45.0037 36.1576C44.7269 35.7413 44.5885 35.27 44.5885 34.7441C44.5885 34.2619 44.7123 33.8273 44.96 33.4402C45.2076 33.053 45.5572 32.7206 46.0088 32.443C46.4603 32.1655 47.0138 31.95 47.6693 31.7966C48.3248 31.6431 49.0531 31.5664 49.8543 31.5664C50.4372 31.5664 51.0522 31.6103 51.7007 31.6979C52.3487 31.7856 53.0007 31.9207 53.6562 32.1034C54.3117 32.286 54.9487 32.5161 55.5682 32.7937C56.1872 33.0713 56.7587 33.3927 57.2832 33.7579V27.2054C56.2197 26.7963 55.0582 26.4931 53.7982 26.2959C52.5382 26.0986 51.0927 26 49.461 26C47.8004 26 46.2273 26.1789 44.7415 26.5369C43.2557 26.8948 41.9484 27.4537 40.8195 28.2134C39.6906 28.9731 38.7984 29.941 38.1429 31.1171C37.4874 32.2932 37.1597 33.6995 37.1597 35.3358C37.1597 37.4251 37.7605 39.2074 38.9623 40.683C40.164 42.1587 41.9884 43.4078 44.4356 44.4305C45.397 44.825 46.2928 45.2122 47.1231 45.592C47.9534 45.9719 48.6708 46.3664 49.2753 46.7755C49.8798 47.1846 50.3567 47.6302 50.7062 48.1123C51.0562 48.5944 51.2307 49.1423 51.2307 49.7559C51.2307 50.209 51.1217 50.629 50.9032 51.016C50.6847 51.403 50.3532 51.739 49.9089 52.024C49.4646 52.309 48.9111 52.532 48.2483 52.6925C47.5856 52.853 46.8099 52.9335 45.9214 52.9335C44.4064 52.9335 42.9061 52.667 41.4203 52.1335C39.9346 51.6005 38.5581 50.8005 37.2908 49.734ZM25.511 32.2772H34.6597V26.5H9.15967V32.2772H18.2636V58H25.511V32.2772Z" fill="white"/>
</g>
<defs>
<clipPath id="clip0_63_1318">
<rect width="64" height="64" fill="white" transform="translate(0.159668)"/>
</clipPath>
</defs>
</svg>
