<svg width="65" height="64" viewBox="0 0 65 64" fill="none" xmlns="http://www.w3.org/2000/svg">
<path d="M37.7264 7.13325C35.0284 3.94632 32.7052 0.709589 32.2306 0.0373468C32.1806 -0.0124489 32.1056 -0.0124489 32.0557 0.0373468C31.581 0.709589 29.2578 3.94632 26.5598 7.13325C3.40245 36.5376 30.2071 56.3813 30.2071 56.3813L30.4319 56.5306C30.6317 59.5932 31.1314 64 31.1314 64H32.1306H33.1299C33.1299 64 33.6295 59.618 33.8293 56.5306L34.0541 56.3565C34.0791 56.3565 60.8837 36.5376 37.7264 7.13325ZM32.1306 55.933C32.1306 55.933 30.9315 54.9122 30.6068 54.3893V54.3397L32.0557 22.3209C32.0557 22.2213 32.2056 22.2213 32.2056 22.3209L33.6545 54.3397V54.3893C33.3297 54.9122 32.1306 55.933 32.1306 55.933Z" fill="#00684A"/>
</svg>
