<svg width="65" height="64" viewBox="0 0 65 64" fill="none" xmlns="http://www.w3.org/2000/svg">
<rect width="64" height="64" transform="translate(0.207764)" fill="white"/>
<g clip-path="url(#clip0_63_1395)">
<path d="M4.71978 32.7578L2.20776 2.05762L32.2078 2.11931L29.5516 32.7578L17.321 36.2992L4.71978 32.7578Z" fill="#E34F26"/>
<path d="M17.321 33.3339V4.98096L29.6752 5.02209L27.4722 30.3893L17.321 33.3339Z" fill="#EF652A"/>
<path d="M26.278 12.0645L26.6278 8.31689H7.62305L8.67305 19.8064H21.7891L21.2747 24.7068L17.0743 25.8391L12.8121 24.6037L12.5856 21.68H8.81724L9.33208 27.6512L17.074 29.8131L24.8776 27.6512L25.9276 15.9971H12.153L11.7618 12.0645H26.278Z" fill="white"/>
</g>
<g clip-path="url(#clip1_63_1395)">
<path d="M34.7198 57.7573L32.2078 27.0576L62.2078 27.1193L59.5516 57.7573L47.321 61.2987L34.7198 57.7573Z" fill="#1B73BA"/>
<path d="M47.2078 61.3524V33L59.562 33.0411L57.3589 58.4081L47.2078 61.3524Z" fill="#1C88C7"/>
<path d="M56.6073 33.6055H37.6025L38.1174 37.3114H47.1358L38.2616 41.1207L38.7762 44.7033H51.8511L51.3774 49.7065L46.9504 50.5714L42.9355 49.542L42.6266 46.7005H38.9409L39.435 52.61L47.3417 54.8131L54.9191 52.4041L55.8868 40.8529H47.8768L56.6071 37.2292L56.6073 33.6055Z" fill="white"/>
</g>
<defs>
<clipPath id="clip0_63_1395">
<rect width="30" height="34.3564" fill="white" transform="translate(2.20776 2)"/>
</clipPath>
<clipPath id="clip1_63_1395">
<rect width="30" height="34.3564" fill="white" transform="translate(32.2078 27)"/>
</clipPath>
</defs>
</svg>
