<svg width="65" height="64" viewBox="0 0 65 64" fill="none" xmlns="http://www.w3.org/2000/svg">
<path fill-rule="evenodd" clip-rule="evenodd" d="M11.8667 55.6039L10.1307 9.37595C10.0761 7.84929 11.2494 6.55729 12.7734 6.46395L43.5841 4.53729L45.9374 5.33329L48.9974 4.19862L52.0854 4.00529C53.6361 3.90662 54.9734 5.08395 55.0734 6.63462C55.0774 6.69462 55.0787 6.75595 55.0787 6.81729V57.1866C55.0774 58.7426 53.8147 60.0026 52.2587 60.0013C52.2174 60.0013 52.1761 60 52.1361 59.9986L14.5547 58.3106C13.0907 58.2453 11.9227 57.0693 11.8667 55.6039Z" fill="#FF4081"/>
<path fill-rule="evenodd" clip-rule="evenodd" d="M48.9947 4.19873L43.5854 4.53473L43.3227 10.8827C43.3134 11.1147 43.4934 11.3094 43.7254 11.3201C43.8227 11.3241 43.9174 11.2947 43.9947 11.2361L46.4587 9.3654L48.5414 11.0067C48.7227 11.1507 48.988 11.1201 49.1307 10.9387C49.192 10.8601 49.224 10.7627 49.2214 10.6627L48.9974 4.20006L48.9947 4.19873ZM44.784 25.4507C43.796 26.2201 36.4147 26.7441 36.4147 25.6494C36.572 21.4694 34.7014 21.2867 33.66 21.2867C32.6747 21.2867 31.0107 21.5841 31.0107 23.8241C31.0107 26.1054 33.4414 27.3934 36.2947 28.9054C40.3467 31.0534 45.2547 33.6547 45.2547 40.1947C45.2547 46.4667 40.1587 49.9281 33.6627 49.9281C26.9574 49.9281 21.096 47.2147 21.7574 37.8094C22.0174 36.7067 30.544 36.9694 30.544 37.8094C30.4374 41.6907 31.3227 42.8321 33.5574 42.8321C35.2734 42.8321 36.052 41.8854 36.052 40.2947C36.052 37.8841 33.5214 36.4614 30.6067 34.8267C26.6614 32.6121 22.0187 30.0054 22.0187 24.0214C22.0187 18.0521 26.124 14.0707 33.4534 14.0707C40.7827 14.0707 44.784 17.9921 44.784 25.4507Z" fill="white"/>
</svg>
