<svg width="65" height="64" viewBox="0 0 65 64" fill="none" xmlns="http://www.w3.org/2000/svg">
<mask id="mask0_63_1379" style="mask-type:luminance" maskUnits="userSpaceOnUse" x="3" y="3" width="59" height="58">
<path d="M3.78564 3H61.7856V61H3.78564V3Z" fill="white"/>
</mask>
<g mask="url(#mask0_63_1379)">
<path fill-rule="evenodd" clip-rule="evenodd" d="M32.7856 3C25.0523 3 20.219 9.44444 18.2856 22.3333C21.1856 15.8889 24.569 13.4722 28.4356 15.0833C30.6418 16.0017 32.2185 18.6707 33.9639 21.6227C36.807 26.4327 40.0979 32 47.2856 32C55.019 32 59.8523 25.5556 61.7856 12.6667C58.8856 19.1111 55.5023 21.5278 51.6356 19.9167C49.4295 18.9983 47.8528 16.3293 46.1074 13.3773C43.2643 8.56728 39.9733 3 32.7856 3ZM18.2856 32C10.5523 32 5.71898 38.4444 3.78564 51.3333C6.68564 44.8889 10.069 42.4722 13.9356 44.0833C16.1418 45.0035 17.7185 47.6707 19.4639 50.6227C22.307 55.4327 25.5979 61 32.7856 61C40.519 61 45.3523 54.5556 47.2856 41.6667C44.3856 48.1111 41.0023 50.5278 37.1356 48.9167C34.9295 47.9983 33.3528 45.3293 31.6074 42.3773C28.7643 37.5673 25.4733 32 18.2856 32Z" fill="#38BDF8"/>
</g>
</svg>
