<svg width="64" height="64" viewBox="0 0 64 64" fill="none" xmlns="http://www.w3.org/2000/svg">
<path d="M56.2668 29.4665L34.5334 7.73317C33.8667 7.0665 32.9334 6.6665 32.0001 6.6665C31.0667 6.6665 30.1334 7.0665 29.4667 7.73317L24.8001 12.3998L30.2667 17.8665C30.8001 17.5998 31.3334 17.4665 32.0001 17.4665C34.2667 17.4665 36.0001 19.1998 36.0001 21.4665C36.0001 22.1332 35.8667 22.6665 35.6001 23.1998L40.9334 28.5332C41.4668 28.2665 42.0001 28.1332 42.6667 28.1332C44.9334 28.1332 46.6667 29.8665 46.6667 32.1332C46.6667 34.3998 44.9334 36.1332 42.6667 36.1332C40.4001 36.1332 38.6667 34.3998 38.6667 32.1332C38.6667 31.4665 38.8001 30.9332 39.0667 30.3998L33.7334 25.0665C33.6001 25.0665 33.4667 25.1998 33.3334 25.1998V39.0665C34.9334 39.5998 36.0001 41.0665 36.0001 42.7998C36.0001 45.0665 34.2667 46.7998 32.0001 46.7998C29.7334 46.7998 28.0001 45.0665 28.0001 42.7998C28.0001 41.0665 29.0667 39.5998 30.6667 39.0665V25.0665C29.0667 24.5332 28.0001 23.0665 28.0001 21.3332C28.0001 20.6665 28.1334 20.1332 28.4001 19.5998L22.9334 14.1332L7.73341 29.4665C7.06675 30.1332 6.66675 31.0665 6.66675 31.9998C6.66675 32.9332 7.06675 33.8665 7.73341 34.5332L29.4667 56.2665C30.1334 56.9332 31.0667 57.3332 32.0001 57.3332C32.9334 57.3332 33.8667 56.9332 34.5334 56.2665L56.2668 34.5332C56.9334 33.8665 57.3334 32.9332 57.3334 31.9998C57.3334 31.0665 56.9334 30.1332 56.2668 29.4665Z" fill="#F4511E"/>
</svg>
