<svg width="65" height="64" viewBox="0 0 65 64" fill="none" xmlns="http://www.w3.org/2000/svg">
<g clip-path="url(#clip0_63_1331)">
<mask id="mask0_63_1331" style="mask-type:alpha" maskUnits="userSpaceOnUse" x="0" y="0" width="65" height="64">
<path d="M32.2969 64C49.97 64 64.2969 49.6731 64.2969 32C64.2969 14.3269 49.97 0 32.2969 0C14.6238 0 0.296875 14.3269 0.296875 32C0.296875 49.6731 14.6238 64 32.2969 64Z" fill="black"/>
</mask>
<g mask="url(#mask0_63_1331)">
<path d="M32.2969 62.9336C49.3809 62.9336 63.2302 49.0842 63.2302 32.0002C63.2302 14.9162 49.3809 1.06689 32.2969 1.06689C15.2129 1.06689 1.36353 14.9162 1.36353 32.0002C1.36353 49.0842 15.2129 62.9336 32.2969 62.9336Z" fill="black" stroke="white" stroke-width="6"/>
<path d="M53.4552 56.0073L24.8806 19.2002H19.4968V44.7895H23.8039V24.6699L50.0742 58.6118C51.2597 57.8185 52.3889 56.9478 53.4552 56.0073Z" fill="url(#paint0_linear_63_1331)"/>
<path d="M45.4525 19.2002H41.1858V44.8002H45.4525V19.2002Z" fill="url(#paint1_linear_63_1331)"/>
</g>
</g>
<defs>
<linearGradient id="paint0_linear_63_1331" x1="39.0524" y1="41.4224" x2="51.6746" y2="57.0669" gradientUnits="userSpaceOnUse">
<stop stop-color="white"/>
<stop offset="1" stop-color="white" stop-opacity="0"/>
</linearGradient>
<linearGradient id="paint1_linear_63_1331" x1="43.3191" y1="19.2002" x2="43.2477" y2="38.0002" gradientUnits="userSpaceOnUse">
<stop stop-color="white"/>
<stop offset="1" stop-color="white" stop-opacity="0"/>
</linearGradient>
<clipPath id="clip0_63_1331">
<rect width="64" height="64" fill="white" transform="translate(0.296875)"/>
</clipPath>
</defs>
</svg>
