<svg width="65" height="64" viewBox="0 0 65 64" fill="none" xmlns="http://www.w3.org/2000/svg">
<path d="M11.0955 10.6667C11.0955 13.4956 12.2193 16.2088 14.2197 18.2091C16.22 20.2095 18.9331 21.3333 21.7621 21.3333H32.4288V0H21.7621C18.9331 0 16.22 1.12381 14.2197 3.12419C12.2193 5.12458 11.0955 7.83769 11.0955 10.6667Z" fill="#F24E1E"/>
<path d="M32.4287 0V21.3333H43.0954C45.9244 21.3333 48.6375 20.2095 50.6378 18.2091C52.6382 16.2088 53.762 13.4956 53.762 10.6667C53.762 7.83769 52.6382 5.12458 50.6378 3.12419C48.6375 1.12381 45.9244 0 43.0954 0L32.4287 0Z" fill="#FF7262"/>
<path d="M11.0955 32.0002C11.0955 34.8291 12.2193 37.5422 14.2197 39.5426C16.22 41.543 18.9331 42.6668 21.7621 42.6668H32.4288V21.3335H21.7621C18.9331 21.3335 16.22 22.4573 14.2197 24.4577C12.2193 26.4581 11.0955 29.1712 11.0955 32.0002Z" fill="#A259FF"/>
<path d="M32.4287 32.0002C32.4287 29.1712 33.5525 26.4581 35.5529 24.4577C37.5533 22.4573 40.2664 21.3335 43.0954 21.3335C45.9244 21.3335 48.6375 22.4573 50.6378 24.4577C52.6382 26.4581 53.762 29.1712 53.762 32.0002C53.762 34.8291 52.6382 37.5422 50.6378 39.5426C48.6375 41.543 45.9244 42.6668 43.0954 42.6668C40.2664 42.6668 37.5533 41.543 35.5529 39.5426C33.5525 37.5422 32.4287 34.8291 32.4287 32.0002Z" fill="#1ABCFE"/>
<path d="M11.0955 53.3332C11.0955 50.5042 12.2193 47.7911 14.2197 45.7907C16.22 43.7903 18.9331 42.6665 21.7621 42.6665H32.4288V53.3332C32.4288 56.1621 31.305 58.8753 29.3046 60.8756C27.3042 62.876 24.5911 63.9998 21.7621 63.9998C18.9331 63.9998 16.22 62.876 14.2197 60.8756C12.2193 58.8753 11.0955 56.1621 11.0955 53.3332Z" fill="#0ACF83"/>
</svg>
