<svg width="64" height="64" viewBox="0 0 64 64" fill="none" xmlns="http://www.w3.org/2000/svg">
<path opacity="0.97" d="M22.7299 48.6098C22.7299 48.6098 20.3499 49.9998 24.4199 50.4598C28.7142 51.0628 33.0826 50.8765 37.3099 49.9098C38.4005 50.5624 39.5446 51.1211 40.7299 51.5798C28.5499 56.7998 13.1599 51.2798 22.7299 48.5798M21.2399 41.7998C21.2399 41.7998 18.5699 43.7998 22.6499 44.1998C28.1992 44.8593 33.8196 44.589 39.2799 43.3998C40.011 44.1027 40.879 44.6473 41.8299 44.9998C27.0999 49.2598 10.6999 45.2998 21.2399 41.7998Z" fill="#5382A1"/>
<path opacity="0.97" d="M33.79 30.2402C36.79 33.7002 33 36.8102 33 36.8102C33 36.8102 40.62 32.8802 37.12 27.9502C33.85 23.3502 31.34 21.0702 44.92 13.2002C44.92 13.2002 23.61 18.5202 33.79 30.2002" fill="#E76F00"/>
<path opacity="0.97" d="M49.8999 53.6498C49.8999 53.6498 51.6599 55.0998 47.9999 56.2198C40.9999 58.3498 18.7299 58.9898 12.5499 56.2998C10.3299 55.2998 14.4899 53.9898 15.7999 53.7098C16.5034 53.538 17.2259 53.4573 17.9499 53.4698C15.4799 51.7298 1.94994 56.8898 11.0999 58.3598C35.9399 62.3598 56.3799 56.5498 49.9399 53.6398M23.8699 34.7398C23.8699 34.7398 12.5599 37.4298 19.8699 38.3998C24.8649 38.7886 29.8844 38.7351 34.8699 38.2398C39.5499 37.8498 44.2499 37.0098 44.2499 37.0098C43.2637 37.4387 42.3139 37.9471 41.4099 38.5298C29.9199 41.5298 7.73994 40.1498 14.1199 37.0598C17.1525 35.5194 20.5086 34.7241 23.9099 34.7398M44.1599 46.0798C55.8399 39.9998 50.4399 34.1798 46.6699 34.9998C46.2144 35.0841 45.7664 35.2045 45.3299 35.3598C45.5778 35.008 45.9265 34.7395 46.3299 34.5898C53.7799 31.9698 59.5199 42.3198 43.9199 46.4198C44.016 46.3324 44.0941 46.2271 44.1499 46.1098" fill="#5382A1"/>
<path opacity="0.97" d="M37.12 0.47998C37.12 0.47998 43.59 6.99998 31 16.9C20.9 24.9 28.7 29.43 31 34.63C25.1 29.31 20.77 24.63 23.68 20.27C27.94 13.87 39.75 10.77 37.14 0.48998" fill="#E76F00"/>
<path opacity="0.97" d="M25 62.5198C36.21 63.2398 53.42 62.1198 53.83 56.8198C53.83 56.8198 53.05 58.8198 44.57 60.4298C35.196 62.0392 25.6294 62.1876 16.21 60.8698C16.21 60.8698 17.65 61.9998 25 62.5198Z" fill="#5382A1"/>
</svg>
