<svg width="65" height="64" viewBox="0 0 65 64" fill="none" xmlns="http://www.w3.org/2000/svg">
<path fill-rule="evenodd" clip-rule="evenodd" d="M37.792 1C37.3436 1 36.9273 1.09645 36.5431 1.22504C37.3596 1.77158 37.808 2.49494 38.0321 3.31475C38.0482 3.42727 38.0802 3.50765 38.0962 3.62016C38.1123 3.71661 38.1282 3.81306 38.1282 3.90951C38.1923 5.32408 37.7599 5.5009 37.4557 6.33678C36.9914 7.41378 37.1195 8.57115 37.6799 9.50349C37.7279 9.616 37.792 9.7446 37.872 9.85712C37.2636 5.79024 40.642 5.17941 41.2665 3.90951C41.3145 2.80036 40.4018 2.06093 39.6813 1.54654C38.9928 1.1286 38.3684 1 37.792 1ZM42.8836 1.91625C42.8196 2.28597 42.8676 2.18952 42.8516 2.38242C42.8356 2.51101 42.8356 2.67176 42.8197 2.80036C42.7877 2.92896 42.7556 3.05755 42.7076 3.18615C42.6756 3.31475 42.6275 3.44335 42.5795 3.57194C42.5154 3.70054 42.4674 3.81306 42.4033 3.94166C42.3553 4.00598 42.3233 4.07025 42.2753 4.13456C42.2433 4.18278 42.2112 4.231 42.1792 4.27923C42.0991 4.39175 42.0191 4.50427 41.939 4.60072C41.8429 4.69717 41.7629 4.80969 41.6508 4.89007V4.90616C41.5547 4.98653 41.4587 5.08298 41.3466 5.16335C41.0103 5.42054 40.6261 5.61344 40.2738 5.85456C40.1617 5.93493 40.0496 5.99924 39.9536 6.09568C39.8415 6.17605 39.7454 6.25643 39.6494 6.35288C39.5373 6.44932 39.4572 6.54577 39.3611 6.6583C39.2811 6.75475 39.185 6.86726 39.121 6.97979C39.0409 7.09231 38.9609 7.20483 38.8968 7.31735C38.8327 7.44595 38.7847 7.55847 38.7207 7.68707C38.6726 7.81566 38.6246 7.92819 38.5926 8.05678C38.5446 8.20146 38.5125 8.33006 38.4805 8.45866C38.4645 8.52298 38.4645 8.60332 38.4485 8.66762C38.4324 8.73195 38.4325 8.79622 38.4165 8.86052C38.4165 8.98911 38.4005 9.13379 38.4005 9.26238C38.4005 9.35883 38.4005 9.45528 38.4165 9.55173C38.4165 9.68032 38.4325 9.80892 38.4645 9.95359C38.4806 10.0822 38.5126 10.2108 38.5446 10.3394C38.5926 10.468 38.6247 10.5966 38.6727 10.7252C38.7047 10.8056 38.7528 10.8859 38.7848 10.9502L35.1021 9.51958C34.4777 9.34276 33.8692 9.18201 33.2448 9.03734C32.9085 8.95697 32.5723 8.87659 32.236 8.79622C31.2753 8.60332 30.2986 8.45866 29.3219 8.36221C29.2899 8.36221 29.2739 8.34611 29.2419 8.34611C28.2812 8.24967 27.3365 8.20144 26.3758 8.20144C25.6713 8.20144 24.9668 8.23356 24.2783 8.28181C23.3016 8.34614 22.3249 8.47471 21.3482 8.63545C21.108 8.66758 20.8678 8.71583 20.6276 8.76406C20.1313 8.8605 19.6509 8.97302 19.1866 9.08555C18.9464 9.14987 18.7062 9.21414 18.4661 9.27844C18.2259 9.37488 18.0017 9.48741 17.7776 9.58386C17.6014 9.66423 17.4253 9.7446 17.2492 9.82498C17.2172 9.84108 17.1851 9.84108 17.1691 9.85711C17.009 9.93748 16.8649 10.0018 16.7208 10.0821C16.6728 10.0982 16.6407 10.1143 16.6087 10.1304C16.4326 10.2107 16.2565 10.3072 16.1124 10.3876C16.0003 10.4358 15.8882 10.5001 15.7921 10.5483C15.7441 10.5804 15.68 10.6126 15.648 10.6287C15.5039 10.7091 15.3598 10.7894 15.2317 10.8698C15.0876 10.9502 14.9595 11.0305 14.8474 11.1109C14.7354 11.1913 14.6233 11.2556 14.5272 11.336C14.5112 11.3521 14.4952 11.3521 14.4792 11.3681C14.3831 11.4324 14.271 11.5128 14.175 11.5931C14.175 11.5931 14.1589 11.6092 14.143 11.6253C14.0629 11.6896 13.9828 11.7539 13.9028 11.8182C13.8708 11.8343 13.8387 11.8664 13.8067 11.8825C13.7267 11.9468 13.6466 12.0272 13.5665 12.0915C13.5505 12.1236 13.5185 12.1397 13.5025 12.1558C13.4064 12.2522 13.3103 12.3326 13.2143 12.429C13.1982 12.429 13.1982 12.4451 13.1823 12.4612C13.0862 12.5415 12.9901 12.638 12.894 12.7344C12.878 12.7505 12.878 12.7666 12.8621 12.7666C12.782 12.8469 12.7019 12.9273 12.6219 13.0238C12.5899 13.0559 12.5418 13.0881 12.5098 13.1202C12.4297 13.2166 12.3337 13.3131 12.2376 13.4095C12.2216 13.4417 12.1896 13.4578 12.1735 13.4899C12.0454 13.6185 11.9334 13.7471 11.8053 13.8757C11.7892 13.8918 11.7733 13.9078 11.7572 13.9239C11.501 14.1972 11.2288 14.4705 10.9406 14.7116C10.6524 14.9688 10.3482 15.2099 10.044 15.4189C9.72375 15.6439 9.41954 15.8368 9.08329 16.0297C8.76306 16.2065 8.42681 16.3673 8.07456 16.512C7.73831 16.6566 7.38606 16.7852 7.03381 16.8977C6.36132 17.0424 5.67282 17.3157 5.08039 17.3639C4.9523 17.3639 4.80819 17.396 4.6801 17.4121C4.536 17.4443 4.40791 17.4765 4.27981 17.5086C4.15172 17.5568 4.02362 17.605 3.89553 17.6532C3.76744 17.7015 3.63935 17.7658 3.51126 17.8301C3.39917 17.9104 3.27108 17.9747 3.159 18.0551C3.04692 18.1355 2.93484 18.2319 2.83877 18.3284C2.72669 18.4088 2.61461 18.5213 2.51854 18.6177C2.42247 18.7303 2.3264 18.8267 2.24634 18.9392C2.16628 19.0678 2.07021 19.1803 2.00616 19.3089C1.92611 19.4215 1.84605 19.5501 1.782 19.6786C1.71793 19.8233 1.65391 19.9519 1.60588 20.0966C1.55784 20.2252 1.50981 20.3699 1.46177 20.5145C1.42977 20.6431 1.3977 20.7717 1.38171 20.9003C1.38171 20.9164 1.36568 20.9324 1.36568 20.9485C1.33368 21.0932 1.33368 21.2861 1.31764 21.3826C1.30161 21.4951 1.28564 21.5915 1.28564 21.7041C1.28564 21.7684 1.28564 21.8487 1.30168 21.913C1.31772 22.0256 1.33368 22.122 1.36575 22.2185C1.39775 22.3149 1.42982 22.4113 1.47783 22.5078V22.5239C1.52586 22.6203 1.58991 22.7168 1.65396 22.8132C1.71803 22.9097 1.78205 23.0061 1.86211 23.1026C1.94217 23.183 2.03824 23.2794 2.13431 23.3598C2.23038 23.4562 2.32645 23.5366 2.43852 23.617C2.82281 23.9545 2.91888 24.0671 3.41523 24.3242C3.49529 24.3725 3.57535 24.4046 3.67142 24.4528C3.68746 24.4528 3.70342 24.4689 3.71946 24.4689C3.71946 24.5011 3.71946 24.5172 3.7355 24.5493C3.75153 24.6779 3.78353 24.8065 3.81555 24.9351C3.84755 25.0798 3.89562 25.2084 3.94365 25.3209C3.99169 25.4174 4.02371 25.5138 4.07174 25.6103C4.08778 25.6424 4.10374 25.6746 4.11978 25.6906C4.18385 25.8192 4.24787 25.9318 4.31191 26.0443C4.39198 26.1568 4.47203 26.2693 4.55209 26.3818C4.63214 26.4783 4.72821 26.5908 4.82428 26.6872C4.92036 26.7837 5.01643 26.8641 5.12851 26.9605C5.12851 26.9605 5.14455 26.9766 5.16051 26.9766C5.25658 27.057 5.35265 27.1374 5.44872 27.2017C5.5608 27.2821 5.67288 27.3463 5.80097 27.4106C5.91306 27.475 6.04115 27.5392 6.16924 27.5875C6.26531 27.6357 6.37739 27.6678 6.48947 27.7C6.50551 27.7161 6.52147 27.7161 6.55354 27.7321C6.61761 27.7482 6.69764 27.7642 6.76169 27.7803C6.71365 28.6484 6.69762 29.4682 6.82576 29.7575C6.96986 30.079 7.67437 29.0985 8.37889 27.9732C8.28282 29.0824 8.21877 30.3844 8.37889 30.7702C8.55501 31.1721 9.51571 29.9183 10.3483 28.5358C21.7005 25.8996 32.06 33.7762 33.1488 44.8998C32.9407 43.1638 30.8111 42.1993 29.8344 42.4404C29.3541 43.6299 28.5375 45.157 27.2245 46.1054C27.3366 45.0445 27.2886 43.9514 27.0644 42.8905C26.7122 44.3694 26.0237 45.7518 25.079 46.9413C23.5579 47.0538 22.0368 46.3144 21.2362 45.2052C21.1721 45.157 21.1561 45.0606 21.1081 44.9963C21.0601 44.8837 21.012 44.7712 20.98 44.6587C20.932 44.5462 20.8999 44.4337 20.8839 44.3211C20.8679 44.2086 20.8679 44.0961 20.8679 43.9675C20.8679 43.8871 20.8679 43.8068 20.8679 43.7264C20.8839 43.6138 20.9159 43.5013 20.948 43.3888C20.98 43.2763 21.012 43.1638 21.06 43.0512C21.1241 42.9387 21.1721 42.8262 21.2522 42.7137C21.5244 41.9421 21.5244 41.3152 21.028 40.9455C20.9319 40.8811 20.8359 40.8329 20.7238 40.7847C20.6597 40.7686 20.5797 40.7365 20.5156 40.7204C20.4676 40.7043 20.4356 40.6883 20.3876 40.6722C20.2755 40.64 20.1634 40.6078 20.0513 40.5918C19.9392 40.5597 19.8271 40.5436 19.7151 40.5436C19.603 40.5275 19.4749 40.5114 19.3628 40.5114C19.2828 40.5114 19.2027 40.5275 19.1226 40.5275C18.9945 40.5275 18.8825 40.5437 18.7704 40.5758C18.6583 40.5919 18.5462 40.6079 18.4341 40.6401C18.3221 40.6722 18.21 40.7044 18.0979 40.7526C17.9858 40.8008 17.8897 40.8491 17.7777 40.8973C17.6816 40.9455 17.5855 41.0098 17.4734 41.058C13.7427 43.5014 15.9684 49.2239 18.5142 50.8796C17.5535 51.0565 16.5768 51.2654 16.3046 51.4744C16.2886 51.4905 16.2726 51.5065 16.2726 51.5065C16.9611 51.9245 17.6816 52.2781 18.4342 52.5835C19.4589 52.9211 20.5477 53.2265 21.028 53.3551V53.3712C22.357 53.6445 23.702 53.7409 25.063 53.6605C32.1561 53.1622 37.9683 47.7451 39.0251 40.6079C39.0571 40.7526 39.0892 40.8812 39.1211 41.0259C39.1692 41.3152 39.2332 41.6206 39.2652 41.9261V41.9422C39.2972 42.0868 39.3133 42.2315 39.3293 42.3601V42.4244C39.3454 42.5691 39.3613 42.7138 39.3613 42.8424C39.3773 43.0192 39.3933 43.196 39.3933 43.3728V43.63C39.3933 43.7104 39.4093 43.8069 39.4093 43.8872C39.4093 43.9837 39.3933 44.0801 39.3933 44.1766V44.4016C39.3933 44.5141 39.3773 44.6106 39.3773 44.7231C39.3773 44.7874 39.3773 44.8517 39.3612 44.9321C39.3612 45.0446 39.3452 45.1571 39.3452 45.2857C39.3291 45.3339 39.3291 45.3822 39.3291 45.4304C39.3131 45.559 39.2971 45.6715 39.2811 45.8001C39.2811 45.8483 39.2811 45.8966 39.2651 45.9448C39.249 46.1055 39.217 46.2502 39.201 46.4109V46.4271V46.4432C39.169 46.5878 39.1369 46.7486 39.1049 46.8932V46.9415C39.0729 47.0861 39.0409 47.2308 39.0089 47.3755C39.0089 47.3916 38.9928 47.4237 38.9928 47.4398C38.9608 47.5845 38.9288 47.7292 38.8808 47.8738V47.9221C38.8327 48.0828 38.7847 48.2275 38.7527 48.3721C38.7366 48.3882 38.7366 48.4043 38.7366 48.4043C38.6886 48.565 38.6406 48.7258 38.5925 48.8865C38.5285 49.0472 38.4804 49.1919 38.4164 49.3527C38.3523 49.5134 38.3043 49.6742 38.2403 49.8188C38.1762 49.9796 38.1122 50.1243 38.0481 50.285H38.0321C37.968 50.4297 37.904 50.5904 37.8239 50.7351C37.8079 50.7833 37.7919 50.8155 37.7759 50.8476C37.7599 50.8637 37.7599 50.8797 37.7439 50.8958C36.7031 53.0016 35.166 54.8502 33.2446 56.2969C33.1165 56.3773 32.9884 56.4737 32.8604 56.5702C32.8284 56.6023 32.7803 56.6184 32.7483 56.6505C32.6362 56.7309 32.5241 56.8113 32.396 56.8917L32.4441 56.9881H32.4601C32.6842 56.956 32.9084 56.9238 33.1326 56.8917H33.1486C33.5649 56.8273 33.9812 56.747 34.3975 56.6666C34.5096 56.6505 34.6377 56.6184 34.7498 56.5862C34.8298 56.5701 34.8939 56.5541 34.9739 56.538C35.086 56.5219 35.1981 56.4898 35.3102 56.4737C35.4062 56.4416 35.5023 56.4255 35.5984 56.3933C37.1995 56.0075 38.7527 55.4771 40.2417 54.8502C37.6959 58.3384 34.2854 61.1514 30.2985 63C32.1399 62.8714 33.9812 62.566 35.7585 62.0516C42.2112 60.1387 47.6391 55.7825 50.8894 49.9152C50.233 53.6285 48.7599 57.1649 46.5823 60.2512C48.1355 59.2225 49.5605 58.0329 50.8574 56.6827C54.444 52.9212 56.7977 48.147 57.5983 43.0192C58.1427 45.559 58.3028 48.1792 58.0626 50.7672C69.623 34.58 59.0233 17.7981 54.5881 13.3776C54.5721 13.3455 54.5561 13.3294 54.5561 13.2972C54.5401 13.3133 54.5401 13.3133 54.5401 13.3294C54.5401 13.3133 54.5401 13.3133 54.524 13.2972C54.524 13.4901 54.508 13.683 54.492 13.8759C54.444 14.2456 54.396 14.5993 54.3319 14.9529C54.2519 15.3066 54.1558 15.6602 54.0597 16.0138C53.9477 16.3514 53.8196 16.7051 53.6755 17.0426C53.5313 17.3641 53.3712 17.7017 53.1951 18.0232C53.019 18.3286 52.8268 18.6501 52.6187 18.9394C52.4105 19.2449 52.1864 19.5342 51.9622 19.8075C51.722 20.0968 51.4659 20.354 51.2097 20.6112C51.0496 20.7559 50.9055 20.8845 50.7453 21.0131C50.6172 21.1256 50.5052 21.222 50.3771 21.3345C50.0889 21.5596 49.8006 21.7686 49.4804 21.9615C49.1762 22.1544 48.856 22.3473 48.5357 22.508C48.1995 22.6687 47.8632 22.8134 47.527 22.9581C47.1908 23.0867 46.8385 23.1992 46.4862 23.2957C46.134 23.3921 45.7657 23.4725 45.4135 23.5368C45.0452 23.6011 44.6769 23.6332 44.3247 23.6654C44.0685 23.6815 43.8123 23.6975 43.5561 23.6975C43.1879 23.6975 42.8196 23.6654 42.4673 23.6332C42.0991 23.6011 41.7308 23.5528 41.3786 23.4724C41.0103 23.4081 40.658 23.3117 40.3058 23.1992H40.2897C40.642 23.167 40.9943 23.1348 41.3465 23.0706C41.7148 23.0062 42.067 22.9259 42.4193 22.8294C42.7715 22.733 43.1238 22.6205 43.46 22.4919C43.8123 22.3633 44.1485 22.2025 44.4688 22.0418C44.805 21.881 45.1092 21.7042 45.4295 21.5113C45.7337 21.3023 46.0379 21.0934 46.3261 20.8683C46.6143 20.6433 46.8865 20.4022 47.1427 20.145C47.4149 19.9039 47.6551 19.6306 47.8952 19.3573C48.1354 19.068 48.3596 18.7786 48.5677 18.4893C48.5997 18.4411 48.6318 18.3768 48.6638 18.3285C48.8239 18.0713 48.984 17.8142 49.1281 17.557C49.3043 17.2355 49.4644 16.914 49.6085 16.5764C49.7526 16.2388 49.8807 15.9013 49.9928 15.5476C50.1048 15.2101 50.1849 14.8564 50.265 14.5028C50.329 14.1331 50.3931 13.7794 50.4251 13.4258C50.4571 13.0561 50.4891 12.6863 50.4891 12.3327C50.4891 12.0755 50.4731 11.8183 50.4572 11.5611C50.4252 11.1914 50.3771 10.8378 50.3291 10.4841C50.265 10.1144 50.185 9.76077 50.0889 9.40712C49.9768 9.06956 49.8647 8.71591 49.7366 8.37835C49.6085 8.04078 49.4484 7.70321 49.2883 7.38172C49.1122 7.06022 48.9361 6.73873 48.7439 6.43332C48.5358 6.1279 48.3276 5.83856 48.1034 5.54921C47.8633 5.27594 47.6231 5.00267 47.3669 4.7294C47.2388 4.60081 47.0947 4.45614 46.9506 4.32754C46.2301 3.76493 45.4775 3.23446 44.725 2.75223C44.6129 2.6879 44.5169 2.6397 44.4048 2.59147C43.8764 2.25391 43.38 2.077 42.8836 1.91625Z" fill="#E0234E"/>
</svg>
