<svg width="65" height="64" viewBox="0 0 65 64" fill="none" xmlns="http://www.w3.org/2000/svg">
<g clip-path="url(#clip0_63_1323)">
<path d="M32.4287 37.8659C35.7424 37.8659 38.4287 35.2396 38.4287 31.9998C38.4287 28.7601 35.7424 26.1338 32.4287 26.1338C29.115 26.1338 26.4287 28.7601 26.4287 31.9998C26.4287 35.2396 29.115 37.8659 32.4287 37.8659Z" fill="#087EA4"/>
<path d="M32.4287 45.1985C48.9973 45.1985 62.4287 39.2892 62.4287 31.9999C62.4287 24.7105 48.9973 18.8013 32.4287 18.8013C15.8602 18.8013 2.42871 24.7105 2.42871 31.9999C2.42871 39.2892 15.8602 45.1985 32.4287 45.1985Z" stroke="#087EA4" stroke-width="3"/>
<path d="M20.7374 38.5993C29.0217 52.6277 40.9718 61.0454 47.4288 57.4007C53.8857 53.756 52.4044 39.4291 44.1201 25.4007C35.8358 11.3723 23.8857 2.95461 17.4288 6.5993C10.9718 10.244 12.4532 24.5709 20.7374 38.5993Z" stroke="#087EA4" stroke-width="3"/>
<path d="M20.7372 25.4008C12.4529 39.4293 10.9716 53.7562 17.4285 57.4008C23.8855 61.0455 35.8356 52.6279 44.1199 38.5994C52.4041 24.571 53.8855 10.2441 47.4285 6.59943C40.9716 2.95474 29.0215 11.3724 20.7372 25.4008Z" stroke="#087EA4" stroke-width="3"/>
</g>
<defs>
<clipPath id="clip0_63_1323">
<rect width="64" height="64" fill="white" transform="translate(0.428711)"/>
</clipPath>
</defs>
</svg>
