<svg width="65" height="64" viewBox="0 0 65 64" fill="none" xmlns="http://www.w3.org/2000/svg">
<path d="M53.6292 35.4391C51.6019 35.4503 49.8461 35.9649 48.375 36.7334C47.8372 35.5967 47.2915 34.5967 47.2006 33.8533C47.0938 32.9858 46.9699 32.467 47.0991 31.4335C47.2282 30.4 47.7937 28.9355 47.7858 28.8254C47.7779 28.7152 47.6593 28.1894 46.4901 28.1796C45.3209 28.1712 44.3204 28.4181 44.2031 28.7445C44.0858 29.0708 43.8603 29.8058 43.7206 30.5729C43.5163 31.6943 41.3862 35.6958 40.1774 37.7878C39.782 36.9705 39.4458 36.2509 39.376 35.6818C39.2692 34.8143 39.1453 34.2955 39.2745 33.262C39.4037 32.2285 39.9691 30.764 39.9612 30.6538C39.9533 30.5437 39.8347 30.0178 38.6655 30.0081C37.4963 29.9997 36.4958 30.2466 36.3785 30.5729C36.2612 30.8993 36.1346 31.6622 35.896 32.4014C35.6561 33.1392 32.826 39.813 32.0839 41.5438C31.7056 42.4253 31.3774 43.1338 31.1454 43.6164L31.1441 43.6136C31.1441 43.6136 31.1296 43.6457 31.1059 43.7001C30.9068 44.1115 30.7895 44.3389 30.7895 44.3389C30.7895 44.3389 30.7908 44.3417 30.7934 44.3472C30.6353 44.6499 30.4665 44.9302 30.3835 44.9302C30.3255 44.9302 30.2082 44.1255 30.4085 43.0208C30.8304 40.7056 31.8414 37.0961 31.8322 36.9705C31.8269 36.9064 32.0207 36.2774 31.1718 35.9482C30.3466 35.6288 30.0526 36.1616 29.9775 36.163C29.905 36.1644 29.851 36.3513 29.851 36.3513C29.851 36.3513 30.7697 32.2912 28.0978 32.2912C26.4264 32.2912 24.1117 34.2257 22.9715 35.9789C22.2518 36.3945 20.7109 37.2844 19.0777 38.2342C18.4502 38.5996 17.8096 38.972 17.2019 39.3262C17.1611 39.2774 17.1189 39.23 17.0767 39.1812C13.8353 35.5228 7.84564 32.9356 8.09872 28.0164C8.19099 26.2284 8.77889 21.5198 19.6102 15.8098C28.4827 11.1319 35.5863 12.4192 36.8135 15.2714C38.5666 19.3482 33.0172 26.923 23.8033 28.0164C20.293 28.4334 18.4436 26.9927 17.9836 26.4571C17.4998 25.8923 17.4273 25.8671 17.2467 25.9731C16.9528 26.1461 17.1386 26.644 17.2467 26.9411C17.5222 27.6984 18.6506 29.0415 20.5751 29.711C22.2689 30.2996 26.3908 30.6218 31.3748 28.5813C36.9585 26.2967 41.3176 19.9396 40.0364 14.6271C38.734 9.22391 30.2662 7.44703 22.2518 10.4596C17.4761 12.2533 12.3129 15.0678 8.59962 18.7415C4.18511 23.1098 3.48121 26.9132 3.77121 28.5018C4.80201 34.1476 12.156 37.8241 15.1008 40.548C14.9558 40.6331 14.8187 40.7126 14.6948 40.7851C13.2184 41.5578 7.61232 44.6624 6.2098 47.9414C4.61878 51.6612 6.46289 54.3307 7.6835 54.6905C11.4653 55.8035 15.346 53.8007 17.4326 50.5091C19.5179 47.219 19.2635 42.933 18.3065 40.9776C18.2947 40.9539 18.2815 40.9302 18.2696 40.9051C18.6506 40.6666 19.0394 40.4239 19.4243 40.184C20.1757 39.7167 20.9139 39.2816 21.5532 38.9134C21.1946 39.9511 20.9323 41.1965 20.7965 42.9943C20.6357 45.106 21.4543 47.8354 22.5246 48.9094C22.9965 49.3822 23.5634 49.3933 23.9219 49.3933C25.1675 49.3933 25.7357 48.2971 26.3618 47C27.129 45.41 27.8105 43.5578 27.8105 43.5578C27.8105 43.5578 26.9563 48.5593 29.2842 48.5593C30.1331 48.5593 30.9859 47.3947 31.3668 46.8019C31.3682 46.8089 31.3682 46.8117 31.3682 46.8117C31.3682 46.8117 31.3906 46.7727 31.4341 46.6959C31.5224 46.5537 31.5725 46.463 31.5725 46.463C31.5725 46.463 31.5738 46.4533 31.5764 46.4365C31.9178 45.8103 32.6745 44.3821 33.8081 42.0264C35.2739 38.9831 36.679 35.17 36.679 35.17C36.679 35.17 36.8095 36.1016 37.2379 37.6442C37.4897 38.5508 38.0249 39.5536 38.448 40.5159C38.1079 41.0152 37.8996 41.3012 37.8996 41.3012C37.8996 41.3012 37.901 41.3067 37.9049 41.3165C37.6334 41.6987 37.3289 42.1101 37.0099 42.5118C35.8525 43.9693 34.4751 45.6346 34.2905 46.1143C34.073 46.6806 34.1244 47.0962 34.5449 47.4324C34.8521 47.6764 35.3978 47.7155 35.9685 47.675C37.0086 47.6011 37.7388 47.3278 38.1 47.1618C38.6629 46.9512 39.318 46.6206 39.9322 46.1422C41.0672 45.2594 41.7513 43.9972 41.6854 42.3235C41.6485 41.4016 41.3717 40.488 41.0197 39.6261C41.1225 39.4699 41.2253 39.3109 41.3295 39.1519C43.1182 36.3848 44.5062 33.3443 44.5062 33.3443C44.5062 33.3443 44.6367 34.2759 45.0651 35.8185C45.2813 36.5981 45.7097 37.4503 46.0946 38.2844C44.4127 39.7307 43.37 41.4113 43.0075 42.5132C42.3379 44.5523 42.8625 45.4756 43.8458 45.6862C44.2914 45.781 44.9215 45.5648 45.3947 45.3528C45.9839 45.1464 46.6917 44.8019 47.3535 44.2873C48.4884 43.4044 49.5798 42.1687 49.5139 40.4964C49.4836 39.7349 49.2885 38.9789 49.0236 38.2537C50.4498 37.6247 52.2952 37.276 54.6468 37.5661C59.6914 38.1895 60.68 41.5215 60.4915 42.9162C60.3017 44.311 59.2446 45.0781 58.89 45.3096C58.5367 45.5411 58.4286 45.622 58.4576 45.7936C58.5011 46.0432 58.6646 46.0348 58.9664 45.9805C59.3817 45.9065 61.6146 44.8465 61.7108 42.2719C61.8308 38.9999 58.8715 35.4098 53.6292 35.4391ZM14.7475 49.3083C13.0761 51.2372 10.7429 51.9652 9.74115 51.3515C8.66026 50.689 9.08866 47.8494 11.1384 45.8019C12.388 44.555 14.0014 43.4058 15.0718 42.6987C15.3156 42.5439 15.6729 42.3165 16.1079 42.0404C16.1803 41.9971 16.2212 41.9734 16.2212 41.9734L16.2199 41.9706C16.3043 41.9176 16.3899 41.8632 16.4783 41.806C17.2256 44.7196 16.502 47.2845 14.7475 49.3083ZM26.9207 40.5536C26.3394 42.0543 25.1214 45.8954 24.3793 45.689C23.7426 45.5118 23.3551 42.5927 24.2527 39.7195C24.7036 38.2732 25.6684 36.5451 26.2353 35.8743C27.1474 34.7948 28.1519 34.4419 28.3957 34.8798C28.7055 35.4377 27.2858 39.6121 26.9207 40.5536ZM36.9769 45.6304C36.7304 45.7671 36.5037 45.8521 36.3996 45.7866C36.3218 45.7378 36.5011 45.5578 36.5011 45.5578C36.5011 45.5578 37.7586 44.1255 38.2542 43.4741C38.5429 43.0948 38.8764 42.6443 39.2402 42.1422C39.2428 42.1924 39.2442 42.2426 39.2442 42.2914C39.2415 44.0069 37.6755 45.1645 36.9769 45.6304ZM44.7237 43.7614C44.5392 43.6234 44.5708 43.1757 45.1759 41.7795C45.4131 41.2314 45.9562 40.3095 46.8974 39.428C47.0068 39.7907 47.0727 40.138 47.0714 40.4615C47.0595 42.6206 45.6043 43.4267 44.7237 43.7614Z" fill="#F06292"/>
</svg>
