<svg width="65" height="64" viewBox="0 0 65 64" fill="none" xmlns="http://www.w3.org/2000/svg">
<path d="M32.3573 63.7378C31.4993 63.7378 30.6986 63.5046 29.955 63.0963L22.3476 58.4895C21.2037 57.848 21.7756 57.6148 22.1189 57.4981C23.6632 56.9733 23.9492 56.8567 25.5508 55.9237C25.7223 55.807 25.9511 55.8653 26.1227 55.982L31.9569 59.5392C32.1857 59.6558 32.4717 59.6558 32.6433 59.5392L55.4652 46.0685C55.694 45.9518 55.8084 45.7186 55.8084 45.427V18.5438C55.8084 18.2523 55.694 18.019 55.4652 17.9024L32.6433 4.49003C32.4145 4.3734 32.1285 4.3734 31.9569 4.49003L9.13494 17.9024C8.90616 18.019 8.79176 18.3106 8.79176 18.5438V45.427C8.79176 45.6602 8.90616 45.9518 9.13494 46.0685L15.3695 49.7423C18.7442 51.4917 20.8605 49.4507 20.8605 47.4097V20.8764C20.8605 20.5265 21.1465 20.1767 21.5469 20.1767H24.464C24.8072 20.1767 25.1503 20.4683 25.1503 20.8764V47.4097C25.1503 52.0166 22.6908 54.6991 18.401 54.6991C17.0855 54.6991 16.0559 54.6991 13.1388 53.2412L7.13302 49.7423C5.64588 48.8675 4.73071 47.2347 4.73071 45.4853V18.6022C4.73071 16.8528 5.64588 15.22 7.13302 14.3452L29.955 0.874511C31.3849 0.0581058 33.3297 0.0581058 34.7596 0.874511L57.5815 14.3452C59.0687 15.22 59.9839 16.8528 59.9839 18.6022V45.4853C59.9839 47.2347 59.0687 48.8675 57.5815 49.7423L34.7596 63.213C34.0732 63.5046 33.2153 63.7378 32.3573 63.7378Z" fill="#5FA04E"/>
<path d="M39.4498 45.2521C29.4402 45.2521 27.3811 40.5869 27.3811 36.6215C27.3811 36.2717 27.6671 35.9218 28.0674 35.9218H31.0417C31.3849 35.9218 31.6709 36.155 31.6709 36.5049C32.1285 39.5955 33.4441 41.1118 39.507 41.1118C44.3116 41.1118 46.3708 40.0038 46.3708 37.3796C46.3708 35.8634 45.7988 34.7554 38.3058 33.9973C32.0713 33.3559 28.1819 31.9564 28.1819 26.8829C28.1819 22.1594 32.0713 19.3604 38.5919 19.3604C45.9132 19.3604 49.5166 21.9262 49.9742 27.5244C49.9742 27.6994 49.917 27.8743 49.8027 28.0493C49.6883 28.1659 49.5166 28.2825 49.345 28.2825H46.3136C46.0275 28.2825 45.7416 28.0493 45.6844 27.7576C44.998 24.5503 43.2249 23.5007 38.5347 23.5007C33.2724 23.5007 32.6433 25.3668 32.6433 26.7663C32.6433 28.4574 33.3869 28.9823 40.4794 29.9153C47.5147 30.8484 50.8322 32.1896 50.8322 37.2047C50.8322 42.3364 46.6567 45.2521 39.4498 45.2521Z" fill="#5FA04E"/>
</svg>
